<svg width="19" height="18" viewBox="0 0 19 18" fill="none" xmlns="http://www.w3.org/2000/svg">
<mask id="mask0_142_8" style="mask-type:alpha" maskUnits="userSpaceOnUse" x="3" y="3" width="13" height="12">
<path d="M4.26007 9.75H12.6376L8.97757 13.41C8.68507 13.7025 8.68507 14.1825 8.97757 14.475C9.27007 14.7675 9.74257 14.7675 10.0351 14.475L14.9776 9.5325C15.2701 9.24 15.2701 8.7675 14.9776 8.475L10.0426 3.525C9.90245 3.38456 9.71221 3.30563 9.51382 3.30563C9.31543 3.30563 9.12519 3.38456 8.98507 3.525C8.69257 3.8175 8.69257 4.29 8.98507 4.5825L12.6376 8.25H4.26007C3.84757 8.25 3.51007 8.5875 3.51007 9C3.51007 9.4125 3.84757 9.75 4.26007 9.75Z" fill="black"/>
</mask>
<g mask="url(#mask0_142_8)">
<rect x="0.353516" width="18" height="18" fill="white"/>
</g>
</svg>
