<svg width="87" height="22" viewBox="0 0 87 22" fill="none" xmlns="http://www.w3.org/2000/svg">
<g id="Group">
<path id="Vector" d="M22.7177 17.1177C22.6208 17.1177 22.5254 17.0198 22.5493 16.8977L22.7907 16.0433C21.874 16.8736 20.7397 17.3619 19.4116 17.3619C16.0802 17.3619 14.0531 14.3118 15.0905 9.86933C15.7419 7.01366 17.5767 4.30568 21.0527 4.30568C22.8384 4.30568 24.2634 5.06217 24.9878 6.50281L25.3023 4.76982C25.3262 4.64776 25.4469 4.5498 25.5676 4.5498H28.8022C28.9229 4.5498 28.9959 4.64776 28.9706 4.76982L27.5218 10.8458L26.1937 16.8977C26.1698 17.0198 26.0491 17.1177 25.9284 17.1177H22.7177ZM20.8113 14.9206C22.3555 14.9447 23.3944 13.7497 23.9489 11.4546C24.6003 8.47691 23.7313 6.86598 22.0663 6.74543H21.6311C20.2076 6.84338 19.2179 8.03839 18.7349 10.2837C18.0105 13.3097 18.9764 14.9447 20.8113 14.9206Z" fill="#C9C9C9"/>
<path id="Vector_2" d="M32.8803 21.9987C29.8142 22.047 27.2326 20.7058 27.401 17.9481C27.401 17.826 27.5217 17.728 27.6425 17.728H30.7562C30.9008 17.728 30.9977 17.826 31.0216 17.9481C31.1661 18.9728 32.0843 19.5831 33.314 19.5831C34.8836 19.5831 35.921 18.7045 36.3801 16.7274L36.6454 15.6048C35.6796 16.5074 34.4975 17.0439 33.0726 17.0439C29.6935 17.0439 27.714 14.1159 28.7037 9.79548C29.3551 6.96393 31.2138 4.30417 34.7137 4.30417C36.4755 4.30417 37.8513 5.03654 38.5996 6.42746L38.8887 4.76831C38.9126 4.64625 39.0333 4.54829 39.1541 4.54829H42.3409C42.4616 4.54829 42.5346 4.64625 42.5093 4.76831L41.0366 11.0161L39.7577 16.7757C39.0572 19.9478 36.9823 21.9987 32.8788 21.9987H32.8803ZM34.4737 14.6041C35.8733 14.6283 36.8869 13.6774 37.4429 11.8464C37.5159 11.5044 37.5875 11.1879 37.6605 10.8458C38.0958 8.33224 37.2983 6.91721 35.8495 6.77104C35.7764 6.74693 35.4142 6.74693 35.295 6.74693C33.8462 6.84488 32.8326 7.99167 32.3497 10.2129C31.6729 13.0927 32.5911 14.6298 34.4737 14.6057V14.6041Z" fill="#C9C9C9"/>
<path id="Vector_3" d="M55.4251 4.54979C55.5458 4.54979 55.6174 4.64774 55.5935 4.7698L54.1939 10.5776L52.7943 16.8977C52.7704 17.0198 52.6497 17.1177 52.5289 17.1177H49.4628C49.366 17.1177 49.2691 17.0198 49.2944 16.8977L49.6805 15.5309C48.643 16.5797 47.2673 17.4101 45.7215 17.4101C42.9208 17.4101 41.4243 15.653 42.0771 12.5291L42.6331 9.89342L43.7913 4.76829C43.8151 4.64623 43.9359 4.54828 44.0566 4.54828H47.2181C47.3388 4.54828 47.4103 4.64623 47.3865 4.76829L46.1314 9.89342L45.5516 12.4808C45.2371 13.8718 45.9377 14.7262 47.2166 14.7262C48.4239 14.7262 49.9443 13.5056 50.5718 10.8217L50.7656 9.89492L51.9476 4.7698C51.9715 4.64774 52.0922 4.54979 52.2129 4.54979H55.4236H55.4251Z" fill="#C9C9C9"/>
<path id="Vector_4" d="M67.0588 12.8712C67.1795 12.8712 67.2526 12.9691 67.2272 13.0912C66.5997 15.3848 64.5472 17.4357 60.6852 17.4357C56.8231 17.4357 55.0613 15.1662 55.0613 12.0906C55.0613 8.45431 57.2092 4.23184 62.5439 4.23184C66.6236 4.23184 68.8445 6.96544 67.8056 11.3582C67.7817 11.4803 67.661 11.5782 67.5402 11.5782H58.6327V12.0665C58.6327 13.9938 59.3079 14.9945 60.8536 14.9945C62.2771 14.9945 63.316 14.4339 63.7498 13.0912C63.7736 12.945 63.8943 12.8712 64.0151 12.8712H67.0558H67.0588ZM62.2085 6.64898C60.6643 6.64898 59.6015 7.67371 59.047 9.26052H64.3818C64.6471 7.94195 63.8511 6.64898 62.21 6.64898H62.2085Z" fill="#C9C9C9"/>
<g id="Group_2">
<path id="Vector_5" d="M5.84011 0.0350037H4.08423C3.96349 0.0350037 3.84275 0.132955 3.81891 0.255018L3.27783 2.74449H5.18873L5.84011 0.0350037Z" fill="#C9C9C9"/>
<path id="Vector_6" d="M9.97343 0.0350037H7.82405L7.23975 2.74449H9.73047C11.3477 2.74449 12.1198 3.50098 12.1198 5.0878C12.1198 7.47932 10.5503 8.47993 9.00606 8.47993H2.02875L2.00788 8.57788L0.0045663 16.8977C-0.0192827 17.0198 0.0522642 17.1178 0.173 17.1178H3.48055C3.60129 17.1178 3.72202 17.0198 3.74587 16.8977L4.97708 11.1879H8.35618C12.8934 11.1879 15.7419 8.77228 15.7419 4.67188C15.7434 1.62182 13.5702 0.0350037 9.97343 0.0350037Z" fill="#C9C9C9"/>
</g>
<g id="Group_3">
<path id="Vector_7" d="M72.8109 2.3798H76.8771L76.5626 1.56454H72.4651L72.8109 2.3798Z" fill="#C9C9C9"/>
<path id="Vector_8" d="M72.3071 1.19686H76.4195L76.0469 0.230907C75.9992 0.132955 75.8784 0.0350037 75.7577 0.0350037H72.0164C71.9195 0.0350037 71.848 0.132955 71.8957 0.230907L72.3071 1.19686Z" fill="#C9C9C9"/>
<path id="Vector_9" d="M86.211 0.0350037H82.2282C82.1075 0.0350037 81.9629 0.108844 81.8899 0.205289L78.004 5.3063L77.2542 3.36083H73.2282L75.2286 8.06401L67.6252 16.9475C67.5775 17.0213 67.6014 17.1178 67.6983 17.1178H71.681C71.8018 17.1178 71.9464 17.0439 72.0433 16.9475L76.582 11.0176L78.7538 16.9234C78.8015 17.0213 78.9222 17.1193 79.0429 17.1193H82.7604C82.8573 17.1193 82.9288 17.0213 82.8811 16.9234L79.3082 8.35787L86.2826 0.205289C86.3303 0.131448 86.3064 0.0350037 86.2095 0.0350037H86.211Z" fill="#C9C9C9"/>
</g>
</g>
</svg>
