<svg width="25" height="24" viewBox="0 0 25 24" fill="none" xmlns="http://www.w3.org/2000/svg">
<g id="Vector">
<g id="Vector_2">
<path fill-rule="evenodd" clip-rule="evenodd" d="M3.66902 18.1525L0.25 20.7885L1.90931 21.6997C7.8569 24.9724 15.0018 24.7332 19.7029 21.1086C24.6795 17.2716 25.7344 9.93262 22.0554 4.74234C18.3764 -0.447945 11.3396 -1.54815 6.36307 2.28882C1.54795 6.00131 0.398444 12.9996 3.66902 18.1525ZM7.76727 4.26985C11.6991 1.23834 17.2493 2.10611 20.156 6.20683C23.0626 10.3076 22.2306 16.096 18.2987 19.1275C14.7657 21.8515 9.51881 22.2818 4.7788 20.3605L6.96318 18.6763L5.91003 17.1905C3.00335 13.0898 3.83539 7.30135 7.76727 4.26985Z" fill="#2D2D2D"/>
<path fill-rule="evenodd" clip-rule="evenodd" d="M8.30996 6.85406H10.1472C10.4359 6.85406 10.6721 7.10042 10.6721 7.40152C10.6721 8.08585 10.7771 8.7428 10.9713 9.35596C11.029 9.54757 10.987 9.76108 10.8401 9.91437L9.68525 11.1188C10.4411 12.6681 11.6589 13.9327 13.1445 14.7266L14.2993 13.5221C14.4043 13.4181 14.5355 13.3634 14.672 13.3634C14.7245 13.3634 14.7822 13.3688 14.8347 13.3907C15.4226 13.5933 16.0578 13.7028 16.7087 13.7028C16.9974 13.7028 17.2336 13.9492 17.2336 14.2503V16.1609C17.2336 16.462 16.9974 16.7084 16.7087 16.7084C11.7797 16.7084 7.78504 12.5422 7.78504 7.40152C7.78504 7.10042 8.02125 6.85406 8.30996 6.85406ZM9.64328 7.94896C9.67478 8.4362 9.75352 8.91249 9.8795 9.36688L9.24959 10.0238C9.03437 9.36688 8.8979 8.6716 8.85065 7.94896H9.64328ZM14.8189 14.5294C15.2651 14.6608 15.7218 14.7429 16.1837 14.7758V15.5915C15.4908 15.5422 14.8241 15.3999 14.189 15.1809L14.8189 14.5294Z" fill="#2D2D2D"/>
</g>
</g>
</svg>
