<svg width="24" height="25" viewBox="0 0 24 25" fill="none" xmlns="http://www.w3.org/2000/svg">
<g id="person_24px">
<path id="icon/social/person_24px" fill-rule="evenodd" clip-rule="evenodd" d="M12 4.38519C9.79 4.38519 8 6.17519 8 8.38519C8 10.5952 9.79 12.3852 12 12.3852C14.21 12.3852 16 10.5952 16 8.38519C16 6.17519 14.21 4.38519 12 4.38519ZM14 8.38519C14 7.28519 13.1 6.38519 12 6.38519C10.9 6.38519 10 7.28519 10 8.38519C10 9.48519 10.9 10.3852 12 10.3852C13.1 10.3852 14 9.48519 14 8.38519ZM18 18.3852C17.8 17.6752 14.7 16.3852 12 16.3852C9.31 16.3852 6.23 17.6652 6 18.3852H18ZM4 18.3852C4 15.7252 9.33 14.3852 12 14.3852C14.67 14.3852 20 15.7252 20 18.3852V20.3852H4V18.3852Z" fill="#010E2E"/>
</g>
</svg>
