<svg width="20" height="21" viewBox="0 0 20 21" fill="none" xmlns="http://www.w3.org/2000/svg">
<g id="cloud_upload_24px">
<path id="icon/file/cloud_upload_24px" fill-rule="evenodd" clip-rule="evenodd" d="M16.125 9.28797C15.5583 6.41297 13.0333 4.25464 10 4.25464C7.59167 4.25464 5.5 5.62131 4.45833 7.62131C1.95 7.88797 0 10.013 0 12.588C0 15.3463 2.24167 17.588 5 17.588H15.8333C18.1333 17.588 20 15.7213 20 13.4213C20 11.2213 18.2917 9.43797 16.125 9.28797ZM15.8333 15.9213H5C3.15833 15.9213 1.66667 14.4296 1.66667 12.588C1.66667 10.8796 2.94167 9.45464 4.63333 9.27964L5.525 9.18797L5.94167 8.39631C6.73333 6.87131 8.28333 5.92131 10 5.92131C12.1833 5.92131 14.0667 7.47131 14.4917 9.61297L14.7417 10.863L16.0167 10.9546C17.3167 11.038 18.3333 12.1296 18.3333 13.4213C18.3333 14.7963 17.2083 15.9213 15.8333 15.9213ZM8.79167 11.7546H6.66667L10 8.42131L13.3333 11.7546H11.2083V14.2546H8.79167V11.7546Z" fill="#010E2E"/>
</g>
</svg>
