<svg width="374" height="163" viewBox="0 0 374 163" fill="none" xmlns="http://www.w3.org/2000/svg">
<g filter="url(#filter0_d_157_343)">
<rect x="4.5" width="357" height="147" rx="32" fill="#F2F2F2"/>
<path fill-rule="evenodd" clip-rule="evenodd" d="M183 60.1667C187.413 60.1667 191 63.7534 191 68.1667C191 74.1667 183 82.8334 183 82.8334C183 82.8334 175 74.1667 175 68.1667C175 63.7534 178.587 60.1667 183 60.1667ZM192.333 86.8334V84.1667H173.667V86.8334H192.333ZM177.667 68.1667C177.667 65.22 180.053 62.8334 183 62.8334C185.947 62.8334 188.333 65.22 188.333 68.1667C188.333 71.0067 185.56 75.4467 183 78.7134C180.44 75.46 177.667 71.0067 177.667 68.1667ZM180.333 68.1667C180.333 66.7 181.533 65.5 183 65.5C184.467 65.5 185.667 66.7 185.667 68.1667C185.667 69.6334 184.48 70.8334 183 70.8334C181.533 70.8334 180.333 69.6334 180.333 68.1667Z" fill="#2D2D2D"/>
</g>
<defs>
<filter id="filter0_d_157_343" x="0.5" y="0" width="373" height="163" filterUnits="userSpaceOnUse" color-interpolation-filters="sRGB">
<feFlood flood-opacity="0" result="BackgroundImageFix"/>
<feColorMatrix in="SourceAlpha" type="matrix" values="0 0 0 0 0 0 0 0 0 0 0 0 0 0 0 0 0 0 127 0" result="hardAlpha"/>
<feOffset dx="4" dy="8"/>
<feGaussianBlur stdDeviation="4"/>
<feComposite in2="hardAlpha" operator="out"/>
<feColorMatrix type="matrix" values="0 0 0 0 0 0 0 0 0 0 0 0 0 0 0 0 0 0 0.17 0"/>
<feBlend mode="normal" in2="BackgroundImageFix" result="effect1_dropShadow_157_343"/>
<feBlend mode="normal" in="SourceGraphic" in2="effect1_dropShadow_157_343" result="shape"/>
</filter>
</defs>
</svg>
