<svg width="67" height="19" viewBox="0 0 67 19" fill="none" xmlns="http://www.w3.org/2000/svg">
<path d="M0.345188 18V1.08H4.08919V14.856H11.7212V18H0.345188ZM12.5678 9.528C12.5678 7.768 12.8958 6.24 13.5518 4.944C14.2238 3.632 15.1838 2.616 16.4318 1.896C17.6798 1.176 19.1598 0.816 20.8718 0.816C22.5838 0.816 24.0638 1.176 25.3118 1.896C26.5598 2.616 27.5198 3.632 28.1918 4.944C28.8798 6.24 29.2238 7.76 29.2238 9.504C29.2238 11.28 28.8798 12.824 28.1918 14.136C27.5198 15.432 26.5598 16.448 25.3118 17.184C24.0638 17.904 22.5838 18.264 20.8718 18.264C19.1598 18.264 17.6798 17.904 16.4318 17.184C15.1998 16.448 14.2478 15.424 13.5758 14.112C12.9038 12.8 12.5678 11.272 12.5678 9.528ZM16.4798 9.528C16.4798 11.272 16.8398 12.64 17.5598 13.632C18.2958 14.608 19.3998 15.096 20.8718 15.096C22.3118 15.096 23.4078 14.608 24.1598 13.632C24.9118 12.64 25.2878 11.272 25.2878 9.528C25.2878 7.768 24.9118 6.408 24.1598 5.448C23.4238 4.472 22.3278 3.984 20.8718 3.984C19.3998 3.984 18.2958 4.472 17.5598 5.448C16.8398 6.408 16.4798 7.768 16.4798 9.528ZM40.5259 18.264C38.5899 18.264 36.9579 17.912 35.6299 17.208C34.3179 16.488 33.3259 15.48 32.6539 14.184C31.9819 12.872 31.6459 11.344 31.6459 9.6C31.6459 7.808 32.0059 6.256 32.7259 4.944C33.4619 3.632 34.5179 2.616 35.8939 1.896C37.2699 1.176 38.9179 0.816 40.8379 0.816C42.0699 0.816 43.1499 0.975999 44.0779 1.296C45.0219 1.6 45.8459 2.04 46.5499 2.616L45.3499 5.52C44.8379 5.152 44.3579 4.864 43.9099 4.656C43.4619 4.432 42.9979 4.28 42.5179 4.2C42.0379 4.104 41.4859 4.056 40.8619 4.056C39.1019 4.056 37.7739 4.536 36.8779 5.496C35.9979 6.44 35.5579 7.816 35.5579 9.624C35.5579 11.416 35.9739 12.776 36.8059 13.704C37.6379 14.632 38.9419 15.096 40.7179 15.096C41.3099 15.096 41.9179 15.04 42.5419 14.928C43.1659 14.816 43.7819 14.648 44.3899 14.424L43.7179 15.864V11.304H39.9979V8.64H46.8139V16.944C45.9659 17.36 44.9819 17.688 43.8619 17.928C42.7579 18.152 41.6459 18.264 40.5259 18.264ZM49.5287 9.528C49.5287 7.768 49.8567 6.24 50.5127 4.944C51.1847 3.632 52.1447 2.616 53.3927 1.896C54.6407 1.176 56.1207 0.816 57.8327 0.816C59.5447 0.816 61.0247 1.176 62.2727 1.896C63.5207 2.616 64.4807 3.632 65.1527 4.944C65.8407 6.24 66.1847 7.76 66.1847 9.504C66.1847 11.28 65.8407 12.824 65.1527 14.136C64.4807 15.432 63.5207 16.448 62.2727 17.184C61.0247 17.904 59.5447 18.264 57.8327 18.264C56.1207 18.264 54.6407 17.904 53.3927 17.184C52.1607 16.448 51.2087 15.424 50.5367 14.112C49.8647 12.8 49.5287 11.272 49.5287 9.528ZM53.4407 9.528C53.4407 11.272 53.8007 12.64 54.5207 13.632C55.2567 14.608 56.3607 15.096 57.8327 15.096C59.2727 15.096 60.3687 14.608 61.1207 13.632C61.8727 12.64 62.2487 11.272 62.2487 9.528C62.2487 7.768 61.8727 6.408 61.1207 5.448C60.3847 4.472 59.2887 3.984 57.8327 3.984C56.3607 3.984 55.2567 4.472 54.5207 5.448C53.8007 6.408 53.4407 7.768 53.4407 9.528Z" fill="#2D2D2D"/>
</svg>
